<?xml version="1.0" encoding="utf-8"?>
<!DOCTYPE svg
  PUBLIC '-//W3C//DTD SVG 1.0//EN'
  'http://www.w3.org/TR/2001/REC-SVG-20010904/DTD/svg10.dtd'>
<svg width="566.9291338582677" height="566.9291338582677" preserveAspectRatio="xMinYMin meet" viewBox="0 0 566 566" xmlns="http://www.w3.org/2000/svg" version="1.0" fill-rule="evenodd" xmlns:xlink="http://www.w3.org/1999/xlink">
	<title>...</title>
	<desc>...</desc>
	<clipPath id="clip">
		<rect x="0" y="0" width="566.9291338582677" height="566.9291338582677"/>
	</clipPath>
	<g id="group" transform="scale(1,-1) translate(0,-566)" style="clip-path: url(#clip)">
		<g transform="">
			<path d="M 401.965873 451.587722 L 400.315144 452.739189 L 398.653227 453.874448 L 396.980282 454.993391 L 395.296467 456.095911 L 393.601945 457.181903 L 391.896879 458.251262 L 390.18143 459.303886 L 388.455764 460.339674 L 386.720045 461.358528 L 384.97444 462.360349 L 383.219116 463.345041 L 381.454241 464.312511 L 379.679984 465.262665 L 377.896515 466.195413 L 376.104004 467.110666 L 374.302624 468.008335 L 372.492546 468.888335 L 370.673944 469.750582 L 368.846993 470.594993 L 367.011866 471.421487 L 365.16874 472.229985 L 363.317792 473.02041 L 361.459198 473.792685 L 359.593136 474.546738 L 357.719785 475.282495 L 355.839325 475.999887 L 353.951935 476.698844 L 352.057797 477.3793 L 350.157091 478.04119 L 348.249999 478.68445 L 346.336705 479.309019 L 344.417391 479.914836 L 342.492241 480.501844 L 340.561439 481.069987 L 338.625171 481.619211 L 336.683621 482.149461 L 334.736975 482.660689 L 332.785421 483.152845 L 330.829145 483.625881 L 328.868333 484.079753 L 326.903174 484.514417 L 324.933857 484.929832 L 322.960568 485.325957 L 320.983499 485.702755 L 319.002837 486.06019 L 317.018772 486.398227 L 315.031495 486.716834 L 313.041195 487.015981 L 311.048063 487.295638 L 309.052291 487.55578 L 307.054069 487.796381 L 305.053588 488.017419 L 303.05104 488.218871 L 301.046616 488.400719 L 299.04051 488.562946 L 297.032912 488.705535 L 295.024014 488.828474 L 296.099312 507.932093 L 298.295083 507.797718 L 300.489435 507.641865 L 302.682156 507.464547 L 304.873037 507.265783 L 307.061869 507.045591 L 309.248441 506.803992 L 311.432544 506.541009 L 313.61397 506.256668 L 315.792509 505.950996 L 317.967953 505.624022 L 320.140093 505.275777 L 322.308722 504.906294 L 324.473632 504.51561 L 326.634615 504.103761 L 328.791465 503.670787 L 330.943975 503.216729 L 333.091939 502.741631 L 335.235152 502.245539 L 337.373408 501.728499 L 339.506502 501.190561 L 341.63423 500.631777 L 343.756389 500.052201 L 345.872776 499.451887 L 347.983187 498.830894 L 350.087421 498.18928 L 352.185276 497.527107 L 354.276551 496.844439 L 356.361047 496.141341 L 358.438562 495.41788 L 360.5089 494.674126 L 362.571861 493.910149 L 364.627248 493.126023 L 366.674863 492.321823 L 368.714512 491.497626 L 370.745999 490.653511 L 372.769129 489.789559 L 374.783708 488.905852 L 376.789544 488.002474 L 378.786445 487.079514 L 380.774219 486.137058 L 382.752676 485.175197 L 384.721626 484.194024 L 386.680882 483.193632 L 388.630255 482.174116 L 390.56956 481.135575 L 392.498609 480.078108 L 394.417219 479.001817 L 396.325206 477.906803 L 398.222387 476.793173 L 400.10858 475.661032 L 401.983605 474.510489 L 403.847283 473.341655 L 405.699435 472.154641 L 407.539883 470.949561 L 409.368451 469.72653 L 411.184965 468.485665 L 412.989251 467.227086 L 421.256784 478.956608 L 421.335903 478.608046 L 421.414417 478.25955 L 421.492328 477.91112 L 421.569635 477.562759 L 421.646338 477.214465 L 421.722438 476.866241 L 421.797935 476.518088 L 421.872829 476.170005 L 421.94712 475.821995 L 422.020809 475.474058 L 422.093896 475.126195 L 422.166382 474.778406 L 422.238265 474.430694 L 422.309548 474.083058 L 422.380229 473.735499 L 422.45031 473.38802 L 422.51979 473.040619 L 422.58867 472.693299 L 422.65695 472.34606 L 422.72463 471.998904 L 422.791711 471.65183 L 422.858193 471.30484 L 422.924076 470.957935 L 422.98936 470.611116 L 423.054045 470.264383 L 423.118133 469.917738 L 423.181623 469.571182 L 423.244515 469.224714 L 423.30681 468.878337 L 423.368508 468.532051 L 423.42961 468.185858 L 423.490115 467.839757 L 423.550023 467.493749 L 423.609336 467.147837 L 423.668054 466.80202 L 423.726176 466.4563 L 423.783703 466.110677 L 423.840635 465.765153 L 423.896973 465.419727 L 423.952717 465.074402 L 424.007867 464.729178 L 424.062424 464.384056 L 424.116387 464.039036 L 424.169757 463.69412 L 424.222535 463.349309 L 424.27472 463.004603 L 424.326313 462.660004 L 424.377315 462.315511 L 424.427725 461.971127 L 424.477544 461.626852 L 424.526772 461.282687 L 424.575409 460.938632 L 424.623456 460.59469 L 424.670914 460.250859 L 424.717781 459.907143 L 424.76406 459.56354 L 424.809749 459.220053 L 424.85485 458.876682 L 424.899362 458.533428 L 424.943287 458.190292 L 424.986623 457.847274 L 425.029372 457.504376 L 425.071535 457.161599 L 425.11311 456.818943 L 425.154099 456.476409 L 425.194502 456.133999 L 425.234318 455.791712 L 425.27355 455.449551 L 425.312196 455.107515 L 425.350258 454.765606 L 425.387735 454.423825 L 425.424628 454.082171 L 425.460937 453.740648 L 425.496662 453.399254 L 425.531805 453.057992 L 425.566364 452.716861 L 425.600341 452.375863 L 425.633736 452.034999 L 425.66655 451.694269 L 425.698781 451.353675 L 425.730432 451.013217 L 425.761502 450.672897 L 425.791991 450.332714 L 425.8219 449.99267 L 425.85123 449.652766 L 425.87998 449.313003 L 425.908151 448.973381 L 425.935743 448.633901 L 425.962757 448.294565 L 425.989193 447.955373 L 426.015051 447.616326 L 426.040332 447.277424 L 426.065036 446.93867 L 426.089164 446.600063 L 426.112715 446.261604 L 426.135691 445.923294 L 426.158091 445.585135 L 426.179915 445.247127 L 426.201166 444.909271 L 426.221841 444.571567 L 426.221841 444.571567 L 425.884325 444.550903 L 425.547031 444.529688 L 425.209961 444.507922 L 424.873114 444.485607 L 424.536493 444.462742 L 424.200096 444.439328 L 423.863927 444.415365 L 423.527984 444.390854 L 423.192269 444.365796 L 422.856784 444.34019 L 422.521527 444.314038 L 422.186501 444.28734 L 421.851707 444.260096 L 421.517144 444.232307 L 421.182814 444.203973 L 420.848718 444.175094 L 420.514856 444.145672 L 420.18123 444.115707 L 419.847839 444.085199 L 419.514685 444.054149 L 419.181769 444.022557 L 418.849091 443.990423 L 418.516652 443.957749 L 418.184453 443.924534 L 417.852495 443.890779 L 417.520778 443.856485 L 417.189304 443.821653 L 416.858072 443.786282 L 416.527085 443.750373 L 416.196342 443.713926 L 415.865845 443.676943 L 415.535594 443.639423 L 415.20559 443.601368 L 414.875834 443.562777 L 414.546326 443.523651 L 414.217068 443.483991 L 413.88806 443.443797 L 413.559303 443.40307 L 413.230797 443.36181 L 412.902545 443.320017 L 412.574545 443.277693 L 412.246799 443.234837 L 411.919308 443.191451 L 411.592073 443.147534 L 411.265094 443.103088 L 410.938373 443.058112 L 410.611909 443.012608 L 410.285704 442.966575 L 409.959758 442.920015 L 409.634072 442.872927 L 409.308648 442.825313 L 408.983485 442.777173 L 408.658585 442.728507 L 408.333948 442.679316 L 408.009575 442.6296 L 407.685467 442.579361 L 407.361625 442.528598 L 407.038049 442.477312 L 406.71474 442.425503 L 406.391698 442.373173 L 406.068926 442.320321 L 405.746423 442.266948 L 405.42419 442.213055 L 405.102228 442.158643 L 404.780537 442.103711 L 404.459119 442.04826 L 404.137975 441.992291 L 403.817104 441.935804 L 403.496508 441.878801 L 403.176187 441.82128 L 402.856142 441.763244 L 402.536375 441.704693 L 402.216885 441.645626 L 401.897673 441.586045 L 401.578741 441.52595 L 401.260089 441.465342 L 400.941717 441.404221 L 400.623627 441.342588 L 400.305819 441.280443 L 399.988293 441.217787 L 399.671052 441.154621 L 399.354095 441.090945 L 399.037423 441.026759 L 398.721037 440.962064 L 398.404937 440.896861 L 398.089125 440.831151 L 397.773601 440.764933 L 397.458366 440.698208 L 397.14342 440.630977 L 396.828765 440.563241 L 396.514401 440.495 L 396.200328 440.426255 L 395.886549 440.357005 L 395.573062 440.287253 L 395.259869 440.216997 L 394.946971 440.14624 L 394.634368 440.074981 L 394.322062 440.003221 L 394.010052 439.93096 L 393.69834 439.8582 Z " style="stroke: rgb(0%,0%,100%); stroke-linecap: round; stroke-width: 1; fill: rgb(0%,0%,100%); fill-rule: evenodd;"/>
			<path d="M 468.899685 372.468904 L 468.26922 373.770686 L 467.629618 375.068001 L 466.980908 376.360787 L 466.323123 377.648979 L 465.656296 378.932514 L 464.98046 380.211327 L 464.295648 381.485357 L 463.601893 382.75454 L 462.899231 384.018812 L 462.187696 385.278113 L 461.467323 386.532378 L 460.738148 387.781547 L 460.000207 389.025558 L 459.253536 390.264348 L 458.498173 391.497858 L 457.734154 392.726025 L 456.961517 393.948789 L 456.180301 395.166089 L 455.390544 396.377867 L 454.592286 397.58406 L 453.785565 398.784611 L 452.970423 399.979458 L 452.146898 401.168545 L 451.315031 402.35181 L 450.474865 403.529197 L 449.62644 404.700647 L 448.769798 405.866101 L 447.904982 407.025503 L 447.032034 408.178795 L 446.150998 409.32592 L 445.261917 410.46682 L 444.364836 411.601441 L 443.459798 412.729725 L 442.546848 413.851617 L 441.626031 414.967062 L 440.697394 416.076004 L 439.760981 417.178388 L 438.81684 418.27416 L 437.865016 419.363265 L 436.905558 420.445651 L 435.938511 421.521263 L 434.963925 422.590048 L 433.981847 423.651953 L 432.992327 424.706926 L 431.995412 425.754915 L 430.991152 426.795867 L 429.979597 427.829732 L 428.960797 428.856458 L 427.934803 429.875994 L 426.901664 430.88829 L 425.861432 431.893296 L 424.814159 432.890963 L 423.759896 433.88124 L 422.698696 434.864079 L 421.63061 435.839432 L 420.555692 436.80725 L 419.473995 437.767485 L 432.126035 452.121244 L 433.308355 451.071685 L 434.483265 450.013838 L 435.650708 448.947755 L 436.810624 447.873489 L 437.962958 446.791093 L 439.107652 445.70062 L 440.24465 444.602125 L 441.373894 443.495662 L 442.49533 442.381285 L 443.608903 441.25905 L 444.714555 440.129011 L 445.812235 438.991226 L 446.901886 437.84575 L 447.983455 436.69264 L 449.056889 435.531953 L 450.122134 434.363746 L 451.179138 433.188077 L 452.227849 432.005005 L 453.268214 430.814587 L 454.300183 429.616883 L 455.323703 428.411951 L 456.338726 427.199852 L 457.3452 425.980645 L 458.343075 424.754391 L 459.332303 423.52115 L 460.312834 422.280983 L 461.28462 421.033952 L 462.247613 419.780118 L 463.201765 418.519544 L 464.147029 417.252291 L 465.083358 415.978422 L 466.010706 414.698 L 466.929028 413.411089 L 467.838277 412.117752 L 468.738409 410.818053 L 469.629379 409.512056 L 470.511144 408.199827 L 471.383659 406.881429 L 472.246881 405.556929 L 473.100768 404.226391 L 473.945278 402.889881 L 474.780369 401.547466 L 475.605998 400.199212 L 476.422127 398.845185 L 477.228714 397.485452 L 478.025719 396.120082 L 478.813104 394.74914 L 479.590828 393.372695 L 480.358854 391.990816 L 481.117143 390.60357 L 481.865659 389.211026 L 482.604364 387.813253 L 483.333221 386.41032 L 484.052195 385.002296 L 484.76125 383.589251 L 485.460351 382.171255 L 486.149463 380.748378 L 499.086797 386.957983 L 498.985919 386.615085 L 498.884546 386.272539 L 498.782678 385.930346 L 498.680316 385.588506 L 498.577461 385.247021 L 498.474112 384.90589 L 498.370271 384.565115 L 498.265939 384.224696 L 498.161116 383.884633 L 498.055802 383.544928 L 497.949999 383.205581 L 497.843707 382.866593 L 497.736927 382.527965 L 497.629659 382.189696 L 497.521904 381.851789 L 497.413663 381.514243 L 497.304937 381.177059 L 497.195725 380.840237 L 497.08603 380.50378 L 496.97585 380.167686 L 496.865188 379.831957 L 496.754044 379.496594 L 496.642418 379.161596 L 496.530312 378.826965 L 496.417725 378.492702 L 496.304658 378.158807 L 496.191113 377.82528 L 496.07709 377.492123 L 495.962589 377.159336 L 495.847612 376.826919 L 495.732158 376.494874 L 495.616229 376.163201 L 495.499826 375.8319 L 495.382948 375.500973 L 495.265597 375.170419 L 495.147773 374.84024 L 495.029477 374.510436 L 494.91071 374.181008 L 494.791473 373.851956 L 494.671765 373.523282 L 494.551588 373.194985 L 494.430943 372.867066 L 494.30983 372.539527 L 494.18825 372.212367 L 494.066203 371.885587 L 493.94369 371.559189 L 493.820713 371.233171 L 493.697271 370.907536 L 493.573366 370.582284 L 493.448997 370.257415 L 493.324166 369.93293 L 493.198874 369.60883 L 493.073121 369.285116 L 492.946907 368.961787 L 492.820235 368.638844 L 492.693103 368.316289 L 492.565513 367.994121 L 492.437466 367.672342 L 492.308963 367.350952 L 492.180003 367.029952 L 492.050589 366.709342 L 491.920719 366.389123 L 491.790396 366.069295 L 491.65962 365.749859 L 491.528391 365.430816 L 491.396711 365.112166 L 491.26458 364.79391 L 491.131998 364.476049 L 490.998967 364.158583 L 490.865488 363.841513 L 490.73156 363.524839 L 490.597184 363.208562 L 490.462362 362.892682 L 490.327094 362.577201 L 490.191381 362.262118 L 490.055223 361.947435 L 489.918622 361.633152 L 489.781577 361.319269 L 489.64409 361.005787 L 489.506161 360.692708 L 489.367792 360.38003 L 489.228982 360.067756 L 489.089733 359.755885 L 488.950045 359.444418 L 488.809919 359.133356 L 488.669356 358.822699 L 488.528356 358.512448 L 488.38692 358.202603 L 488.24505 357.893166 L 488.102745 357.584136 L 487.960006 357.275514 L 487.816834 356.967301 L 487.67323 356.659498 L 487.529195 356.352105 L 487.384729 356.045122 L 487.239833 355.73855 L 487.094508 355.43239 L 486.948754 355.126642 L 486.802573 354.821307 L 486.655964 354.516385 L 486.655964 354.516385 L 486.351212 354.662912 L 486.046385 354.80885 L 485.741485 354.954198 L 485.436512 355.098957 L 485.131468 355.243127 L 484.826352 355.386707 L 484.521167 355.529698 L 484.215913 355.672099 L 483.910591 355.813911 L 483.605202 355.955134 L 483.299747 356.095768 L 482.994227 356.235813 L 482.688642 356.375268 L 482.382995 356.514135 L 482.077285 356.652412 L 481.771513 356.7901 L 481.465681 356.927199 L 481.159789 357.063709 L 480.853839 357.19963 L 480.547831 357.334962 L 480.241767 357.469706 L 479.935646 357.60386 L 479.629471 357.737426 L 479.323241 357.870403 L 479.016959 358.002791 L 478.710624 358.134591 L 478.404238 358.265802 L 478.097802 358.396424 L 477.791317 358.526458 L 477.484783 358.655903 L 477.178202 358.78476 L 476.871574 358.913029 L 476.564901 359.040709 L 476.258182 359.167801 L 475.951421 359.294305 L 475.644616 359.420221 L 475.337769 359.545549 L 475.030882 359.670289 L 474.723954 359.79444 L 474.416987 359.918004 L 474.109983 360.04098 L 473.80294 360.163369 L 473.495862 360.28517 L 473.188748 360.406383 L 472.8816 360.527008 L 472.574418 360.647046 L 472.267203 360.766497 L 471.959957 360.885361 L 471.65268 361.003637 L 471.345373 361.121326 L 471.038037 361.238428 L 470.730673 361.354943 L 470.423282 361.470871 L 470.115865 361.586213 L 469.808423 361.700967 L 469.500956 361.815135 L 469.193466 361.928717 L 468.885954 362.041712 L 468.57842 362.15412 L 468.270865 362.265942 L 467.963291 362.377178 L 467.655698 362.487828 L 467.348087 362.597892 L 467.040459 362.707371 L 466.732816 362.816263 L 466.425157 362.924569 L 466.117484 363.03229 L 465.809797 363.139426 L 465.502099 363.245976 L 465.194389 363.351941 L 464.886668 363.45732 L 464.578938 363.562115 L 464.2712 363.666324 L 463.963454 363.769949 L 463.6557 363.872989 L 463.347941 363.975444 L 463.040178 364.077315 L 462.73241 364.178602 L 462.424639 364.279304 L 462.116865 364.379422 L 461.809091 364.478956 L 461.501316 364.577905 L 461.193542 364.676272 L 460.885769 364.774054 L 460.577998 364.871253 L 460.270231 364.967869 L 459.962468 365.063901 L 459.65471 365.15935 L 459.346959 365.254216 L 459.039214 365.348499 L 458.731477 365.442199 L 458.423749 365.535317 L 458.116031 365.627852 L 457.808323 365.719805 L 457.500627 365.811175 L 457.192943 365.901964 L 456.885273 365.99217 L 456.577617 366.081795 L 456.269976 366.170838 L 455.962351 366.259299 Z " style="stroke: rgb(67%,84%,90%); stroke-linecap: round; stroke-width: 1; fill: rgb(67%,84%,90%); fill-rule: evenodd;"/>
			<path d="M 476.159634 211.51621 L 476.180306 211.571598 L 476.200962 211.626993 L 476.221602 211.682393 L 476.242226 211.737799 L 476.262834 211.793212 L 476.283426 211.84863 L 476.304003 211.904054 L 476.324563 211.959484 L 476.345108 212.01492 L 476.365636 212.070362 L 476.386149 212.12581 L 476.406645 212.181263 L 476.427126 212.236723 L 476.447591 212.292188 L 476.46804 212.347659 L 476.488472 212.403137 L 476.508889 212.45862 L 476.52929 212.514108 L 476.549675 212.569603 L 476.570045 212.625104 L 476.590398 212.68061 L 476.610735 212.736123 L 476.631056 212.791641 L 476.651361 212.847165 L 476.671651 212.902695 L 476.691924 212.95823 L 476.712181 213.013772 L 476.732423 213.069319 L 476.752648 213.124872 L 476.772858 213.180431 L 476.793051 213.235996 L 476.813229 213.291566 L 476.83339 213.347143 L 476.853536 213.402725 L 476.873665 213.458313 L 476.893779 213.513906 L 476.913877 213.569506 L 476.933958 213.625111 L 476.954024 213.680722 L 476.974074 213.736339 L 476.994107 213.791962 L 477.014125 213.84759 L 477.034127 213.903224 L 477.054113 213.958864 L 477.074082 214.014509 L 477.094036 214.070161 L 477.113974 214.125818 L 477.133896 214.18148 L 477.153801 214.237149 L 477.173691 214.292823 L 477.193565 214.348503 L 477.213423 214.404188 L 477.233264 214.45988 L 477.25309 214.515577 L 477.2729 214.57128 L 477.292694 214.626988 L 477.312471 214.682702 L 495.344835 208.284389 L 495.323217 208.223492 L 495.301582 208.162602 L 495.27993 208.101717 L 495.25826 208.040839 L 495.236572 207.979967 L 495.214867 207.919102 L 495.193145 207.858242 L 495.171405 207.797389 L 495.149647 207.736542 L 495.127872 207.675701 L 495.10608 207.614867 L 495.08427 207.554039 L 495.062443 207.493217 L 495.040598 207.432401 L 495.018735 207.371592 L 494.996855 207.310789 L 494.974958 207.249992 L 494.953043 207.189202 L 494.931111 207.128418 L 494.909161 207.06764 L 494.887194 207.006868 L 494.865209 206.946103 L 494.843207 206.885344 L 494.821188 206.824592 L 494.799151 206.763845 L 494.777096 206.703105 L 494.755024 206.642372 L 494.732935 206.581645 L 494.710828 206.520924 L 494.688704 206.460209 L 494.666562 206.399501 L 494.644403 206.338799 L 494.622226 206.278104 L 494.600032 206.217415 L 494.57782 206.156732 L 494.555591 206.096056 L 494.533345 206.035386 L 494.511081 205.974723 L 494.4888 205.914066 L 494.466501 205.853415 L 494.444185 205.792771 L 494.421851 205.732133 L 494.3995 205.671502 L 494.377132 205.610877 L 494.354746 205.550258 L 494.332342 205.489646 L 494.309922 205.42904 L 494.287483 205.368441 L 494.265028 205.307848 L 494.242555 205.247262 L 494.220064 205.186682 L 494.197557 205.126109 L 494.175031 205.065542 L 494.152489 205.004982 L 494.129929 204.944428 L 494.107351 204.88388 L 494.084757 204.823339 L 507.528598 199.803686 L 475.529791 186.273751 L 462.715792 216.535862 Z " style="stroke: rgb(0%,0%,100%); stroke-linecap: round; stroke-width: 1; fill: rgb(0%,0%,100%); fill-rule: evenodd;"/>
			<path d="M 309.610049 79.444056 L 310.138985 79.512537 L 310.667741 79.582389 L 311.196313 79.653612 L 311.7247 79.726206 L 312.252896 79.800169 L 312.780899 79.875501 L 313.308705 79.952203 L 313.83631 80.030272 L 314.363711 80.10971 L 314.890904 80.190515 L 315.417886 80.272686 L 315.944653 80.356224 L 316.471202 80.441127 L 316.997529 80.527396 L 317.52363 80.615029 L 318.049502 80.704025 L 318.575142 80.794385 L 319.100546 80.886108 L 319.62571 80.979193 L 320.150631 81.073639 L 320.675305 81.169446 L 321.199729 81.266613 L 321.7239 81.36514 L 322.247813 81.465025 L 322.771465 81.566269 L 323.294853 81.66887 L 323.817973 81.772828 L 324.340822 81.878142 L 324.863396 81.984811 L 325.385692 82.092835 L 325.907706 82.202213 L 326.429435 82.312945 L 326.950874 82.425028 L 327.472022 82.538464 L 327.992873 82.65325 L 328.513425 82.769387 L 329.033674 82.886873 L 329.553617 83.005707 L 330.07325 83.125889 L 330.592569 83.247419 L 331.111572 83.370294 L 331.630254 83.494515 L 332.148612 83.620081 L 332.666643 83.74699 L 333.184344 83.875242 L 333.70171 84.004835 L 334.218738 84.13577 L 334.735425 84.268045 L 335.251767 84.40166 L 335.767761 84.536613 L 336.283403 84.672903 L 336.79869 84.81053 L 337.313619 84.949493 L 337.828185 85.08979 L 338.342386 85.231422 L 338.856218 85.374386 L 339.369678 85.518681 L 344.570153 67.105111 L 344.00893 66.947392 L 343.4473 66.791129 L 342.885266 66.636323 L 342.322833 66.482974 L 341.760004 66.331085 L 341.196783 66.180655 L 340.633174 66.031687 L 340.069181 65.88418 L 339.504807 65.738137 L 338.940056 65.593557 L 338.374932 65.450442 L 337.809439 65.308793 L 337.243581 65.16861 L 336.677361 65.029896 L 336.110783 64.89265 L 335.543851 64.756874 L 334.976569 64.622568 L 334.408941 64.489733 L 333.84097 64.358371 L 333.272661 64.228482 L 332.704016 64.100068 L 332.135041 63.973128 L 331.565738 63.847663 L 330.996112 63.723676 L 330.426167 63.601166 L 329.855905 63.480134 L 329.285332 63.360581 L 328.71445 63.242508 L 328.143265 63.125916 L 327.571779 63.010806 L 326.999996 62.897177 L 326.427921 62.785032 L 325.855556 62.67437 L 325.282907 62.565193 L 324.709977 62.457501 L 324.136769 62.351295 L 323.563288 62.246576 L 322.989537 62.143344 L 322.415521 62.0416 L 321.841242 61.941345 L 321.266706 61.84258 L 320.691915 61.745304 L 320.116874 61.649519 L 319.541587 61.555226 L 318.966057 61.462425 L 318.390288 61.371116 L 317.814285 61.281301 L 317.23805 61.192979 L 316.661589 61.106152 L 316.084904 61.02082 L 315.508 60.936984 L 314.930881 60.854643 L 314.35355 60.7738 L 313.776011 60.694454 L 313.198268 60.616605 L 312.620326 60.540255 L 312.042187 60.465404 L 313.866291 46.231415 L 286.982862 68.237416 L 307.785946 93.678045 Z " style="stroke: rgb(67%,84%,90%); stroke-linecap: round; stroke-width: 1; fill: rgb(67%,84%,90%); fill-rule: evenodd;"/>
			<path d="M 260.071558 127.353206 L 258.540783 127.590275 L 257.012409 127.842354 L 255.486581 128.109419 L 253.963448 128.391443 L 252.443156 128.6884 L 250.92585 129.000262 L 249.411678 129.326997 L 247.900785 129.668575 L 246.393317 130.024963 L 244.889419 130.396126 L 243.389235 130.782029 L 241.89291 131.182634 L 240.400588 131.597904 L 238.912413 132.027797 L 237.428528 132.472273 L 235.949077 132.931289 L 234.4742 133.4048 L 233.004042 133.892761 L 231.538742 134.395125 L 230.078443 134.911844 L 228.623284 135.442868 L 227.173406 135.988145 L 225.728949 136.547624 L 224.290051 137.12125 L 222.856852 137.708968 L 221.429489 138.310722 L 220.0081 138.926453 L 218.592821 139.556102 L 217.183789 140.199609 L 215.781139 140.856912 L 214.385007 141.527947 L 212.995527 142.21265 L 211.612832 142.910954 L 210.237057 143.622794 L 208.868333 144.348099 L 207.506793 145.0868 L 206.152566 145.838827 L 204.805785 146.604106 L 203.466578 147.382564 L 202.135074 148.174126 L 200.811402 148.978716 L 199.495689 149.796257 L 198.188061 150.626668 L 196.888646 151.469872 L 195.597567 152.325785 L 194.314949 153.194327 L 193.040916 154.075413 L 191.77559 154.968959 L 190.519094 155.874878 L 189.271548 156.793083 L 188.033071 157.723486 L 186.803785 158.665997 L 185.583806 159.620526 L 184.373253 160.58698 L 183.172242 161.565267 L 181.980888 162.555292 L 180.799307 163.55696 L 168.355033 149.022705 L 169.679836 147.899623 L 171.015597 146.789595 L 172.362185 145.692728 L 173.719472 144.609127 L 175.087326 143.538898 L 176.465617 142.482143 L 177.854212 141.438964 L 179.252976 140.409461 L 180.661775 139.393734 L 182.080474 138.391879 L 183.508935 137.403995 L 184.947021 136.430176 L 186.394595 135.470515 L 187.851515 134.525105 L 189.317643 133.594037 L 190.792836 132.677401 L 192.276953 131.775285 L 193.769852 130.887776 L 195.271387 130.014959 L 196.781415 129.156919 L 198.29979 128.313738 L 199.826366 127.485497 L 201.360995 126.672276 L 202.903531 125.874153 L 204.453825 125.091205 L 206.011727 124.323508 L 207.577087 123.571135 L 209.149755 122.83416 L 210.729579 122.112652 L 212.316407 121.406681 L 213.910086 120.716316 L 215.510462 120.041623 L 217.117383 119.382666 L 218.730692 118.73951 L 220.350235 118.112215 L 221.975856 117.500844 L 223.607397 116.905454 L 225.244703 116.326102 L 226.887614 115.762845 L 228.535974 115.215737 L 230.189623 114.684831 L 231.848402 114.170177 L 233.512152 113.671825 L 235.180712 113.189823 L 236.853921 112.724218 L 238.531619 112.275054 L 240.213643 111.842375 L 241.899832 111.426223 L 243.590024 111.026636 L 245.284055 110.643655 L 246.981763 110.277315 L 248.682984 109.927653 L 250.387555 109.594701 L 252.09531 109.278492 L 253.806087 108.979056 L 255.519719 108.696422 L 257.236042 108.430617 L 255.109405 94.238675 L 255.414862 94.434944 L 255.719701 94.631699 L 256.023921 94.828938 L 256.32752 95.02666 L 256.630498 95.224865 L 256.932854 95.42355 L 257.234588 95.622715 L 257.535699 95.822357 L 257.836186 96.022476 L 258.136047 96.223069 L 258.435284 96.424137 L 258.733894 96.625677 L 259.031877 96.827688 L 259.329233 97.030168 L 259.62596 97.233117 L 259.922058 97.436533 L 260.217526 97.640414 L 260.512363 97.844759 L 260.806569 98.049566 L 261.100143 98.254835 L 261.393084 98.460564 L 261.685392 98.666752 L 261.977065 98.873396 L 262.268104 99.080497 L 262.558507 99.288051 L 262.848273 99.496059 L 263.137403 99.704518 L 263.425895 99.913427 L 263.713748 100.122785 L 264.000962 100.332591 L 264.287537 100.542842 L 264.573471 100.753538 L 264.858764 100.964677 L 265.143415 101.176258 L 265.427423 101.388279 L 265.710788 101.600739 L 265.99351 101.813637 L 266.275586 102.02697 L 266.557018 102.240739 L 266.837804 102.454941 L 267.117943 102.669575 L 267.397435 102.884639 L 267.676279 103.100132 L 267.954474 103.316053 L 268.23202 103.5324 L 268.508917 103.749173 L 268.785163 103.966368 L 269.060758 104.183986 L 269.335701 104.402024 L 269.609992 104.620481 L 269.883629 104.839357 L 270.156613 105.058648 L 270.428943 105.278355 L 270.700618 105.498475 L 270.971637 105.719007 L 271.242 105.939949 L 271.511707 106.161301 L 271.780755 106.383061 L 272.049146 106.605227 L 272.316878 106.827798 L 272.583951 107.050773 L 272.850365 107.274149 L 273.116117 107.497927 L 273.381209 107.722103 L 273.645639 107.946678 L 273.909406 108.171649 L 274.172511 108.397014 L 274.434953 108.622773 L 274.69673 108.848925 L 274.957843 109.075467 L 275.218291 109.302398 L 275.478073 109.529716 L 275.737188 109.757422 L 275.995637 109.985512 L 276.253418 110.213985 L 276.510531 110.44284 L 276.766976 110.672076 L 277.022751 110.901692 L 277.277857 111.131684 L 277.532292 111.362053 L 277.786056 111.592797 L 278.039149 111.823914 L 278.291571 112.055403 L 278.543319 112.287262 L 278.794395 112.519491 L 279.044797 112.752087 L 279.294525 112.985048 L 279.543578 113.218375 L 279.791957 113.452065 L 280.039659 113.686116 L 280.286685 113.920528 L 280.533035 114.155299 L 280.778707 114.390427 L 281.023702 114.62591 L 281.268018 114.861749 L 281.511655 115.09794 L 281.754613 115.334483 L 281.996891 115.571376 L 282.238489 115.808617 L 282.479406 116.046206 L 282.479406 116.046206 L 282.241987 116.286951 L 282.005254 116.528032 L 281.769207 116.769448 L 281.533847 117.011197 L 281.299174 117.253278 L 281.065189 117.495689 L 280.831892 117.738429 L 280.599284 117.981497 L 280.367365 118.22489 L 280.136135 118.468608 L 279.905596 118.712649 L 279.675747 118.957011 L 279.446588 119.201693 L 279.218121 119.446694 L 278.990346 119.692011 L 278.763263 119.937645 L 278.536873 120.183592 L 278.311176 120.429852 L 278.086172 120.676423 L 277.861863 120.923304 L 277.638247 121.170493 L 277.415327 121.417989 L 277.193102 121.66579 L 276.971572 121.913894 L 276.750739 122.162301 L 276.530601 122.411009 L 276.311161 122.660016 L 276.092418 122.90932 L 275.874373 123.158921 L 275.657026 123.408817 L 275.440377 123.659006 L 275.224427 123.909488 L 275.009177 124.160259 L 274.794626 124.411319 L 274.580775 124.662667 L 274.367624 124.914301 L 274.155175 125.166219 L 273.943426 125.41842 L 273.732379 125.670903 L 273.522034 125.923665 L 273.312391 126.176706 L 273.103451 126.430024 L 272.895214 126.683617 L 272.68768 126.937485 L 272.48085 127.191625 L 272.274724 127.446036 L 272.069303 127.700716 L 271.864586 127.955664 L 271.660575 128.21088 L 271.457268 128.46636 L 271.254668 128.722103 L 271.052774 128.978109 L 270.851586 129.234375 L 270.651106 129.4909 L 270.451332 129.747683 L 270.252266 130.004722 L 270.053907 130.262015 L 269.856257 130.519562 L 269.659315 130.77736 L 269.463082 131.035408 L 269.267558 131.293705 L 269.072743 131.552249 L 268.878638 131.811038 L 268.685243 132.070071 L 268.492559 132.329347 L 268.300584 132.588864 L 268.109321 132.848621 L 267.918769 133.108616 L 267.728928 133.368847 L 267.539799 133.629314 L 267.351383 133.890013 L 267.163678 134.150945 L 266.976686 134.412108 L 266.790407 134.6735 L 266.604841 134.935119 L 266.419988 135.196964 L 266.235849 135.459034 L 266.052424 135.721327 L 265.869713 135.983841 L 265.687717 136.246575 L 265.506435 136.509528 L 265.325869 136.772698 L 265.146017 137.036083 L 264.966881 137.299683 L 264.788461 137.563495 L 264.610756 137.827518 L 264.433768 138.09175 L 264.257496 138.35619 L 264.081941 138.620837 L 263.907102 138.885689 L 263.732981 139.150744 L 263.559577 139.416002 L 263.386891 139.681459 L 263.214922 139.947116 L 263.043672 140.21297 L 262.873139 140.47902 L 262.703325 140.745264 L 262.53423 141.011701 L 262.365853 141.27833 L 262.198195 141.545148 Z " style="stroke: rgb(0%,0%,100%); stroke-linecap: round; stroke-width: 1; fill: rgb(0%,0%,100%); fill-rule: evenodd;"/>
			<path d="M 116.699141 163.06005 L 116.887253 162.799935 L 117.075771 162.540113 L 117.264694 162.280586 L 117.454022 162.021354 L 117.643755 161.762417 L 117.833891 161.503777 L 118.024431 161.245435 L 118.215373 160.98739 L 118.406718 160.729643 L 118.598465 160.472195 L 118.790614 160.215047 L 118.983164 159.958198 L 119.176114 159.701651 L 119.369465 159.445405 L 119.563215 159.189462 L 119.757364 158.93382 L 119.951912 158.678483 L 120.146859 158.423449 L 120.342203 158.168719 L 120.537944 157.914295 L 120.734083 157.660177 L 120.930617 157.406365 L 121.127548 157.15286 L 121.324874 156.899663 L 121.522595 156.646774 L 121.72071 156.394194 L 121.919219 156.141923 L 122.118122 155.889963 L 122.317417 155.638313 L 122.517105 155.386975 L 122.717186 155.135948 L 122.917657 154.885234 L 123.11852 154.634833 L 123.319773 154.384746 L 123.521417 154.134974 L 123.723449 153.885516 L 123.925871 153.636374 L 124.128682 153.387549 L 124.33188 153.13904 L 124.535467 152.890848 L 124.73944 152.642975 L 124.9438 152.39542 L 125.148546 152.148184 L 125.353677 151.901268 L 125.559194 151.654673 L 125.765095 151.408399 L 125.97138 151.162446 L 126.178049 150.916816 L 126.385101 150.671508 L 126.592536 150.426524 L 126.800353 150.181864 L 127.008551 149.937528 L 127.21713 149.693518 L 127.42609 149.449833 L 127.63543 149.206475 L 127.84515 148.963444 L 128.055248 148.720741 L 113.598567 136.186431 L 113.368925 136.451712 L 113.139697 136.717351 L 112.910883 136.983347 L 112.682485 137.249699 L 112.454503 137.516408 L 112.226937 137.783473 L 111.999789 138.050892 L 111.773058 138.318665 L 111.546745 138.586792 L 111.320851 138.855272 L 111.095377 139.124104 L 110.870322 139.393287 L 110.645687 139.662822 L 110.421474 139.932707 L 110.197682 140.202941 L 109.974312 140.473524 L 109.751364 140.744456 L 109.52884 141.015735 L 109.306739 141.287361 L 109.085062 141.559333 L 108.863811 141.831651 L 108.642984 142.104314 L 108.422583 142.377321 L 108.202609 142.650672 L 107.983061 142.924366 L 107.763941 143.198402 L 107.545249 143.47278 L 107.326985 143.747499 L 107.10915 144.022558 L 106.891745 144.297956 L 106.67477 144.573694 L 106.458225 144.84977 L 106.242112 145.126184 L 106.02643 145.402934 L 105.81118 145.680021 L 105.596363 145.957443 L 105.38198 146.2352 L 105.16803 146.513292 L 104.954514 146.791717 L 104.741433 147.070475 L 104.528787 147.349565 L 104.316578 147.628987 L 104.104804 147.908739 L 103.893467 148.188822 L 103.682568 148.469234 L 103.472107 148.749975 L 103.262084 149.031044 L 103.0525 149.31244 L 102.843355 149.594164 L 102.63465 149.876213 L 102.426386 150.158588 L 102.218563 150.441287 L 102.011181 150.72431 L 101.804241 151.007657 L 101.597744 151.291326 L 101.391689 151.575318 L 101.186078 151.85963 L 89.551281 143.459315 L 96.047062 177.588301 L 128.333938 171.460365 Z " style="stroke: rgb(67%,84%,90%); stroke-linecap: round; stroke-width: 1; fill: rgb(67%,84%,90%); fill-rule: evenodd;"/>
			<path d="M 79.988534 313.555414 L 79.731009 311.75931 L 79.489338 309.961004 L 79.263541 308.160636 L 79.053633 306.358347 L 78.859633 304.554276 L 78.681554 302.748564 L 78.519411 300.941351 L 78.373216 299.132778 L 78.242981 297.322986 L 78.128716 295.512115 L 78.03043 293.700307 L 77.94813 291.887703 L 77.881823 290.074443 L 77.831514 288.260668 L 77.797207 286.446521 L 77.778904 284.632141 L 77.776608 282.81767 L 77.790317 281.00325 L 77.820032 279.189022 L 77.86575 277.375126 L 77.927466 275.561704 L 78.005177 273.748897 L 78.098877 271.936846 L 78.208557 270.125692 L 78.334211 268.315576 L 78.475827 266.506638 L 78.633394 264.699021 L 78.806901 262.892864 L 78.996335 261.088307 L 79.201679 259.285492 L 79.422919 257.484559 L 79.660037 255.685647 L 79.913014 253.888897 L 80.181831 252.094448 L 80.466467 250.302441 L 80.766901 248.513014 L 81.083107 246.726307 L 81.415063 244.942459 L 81.762741 243.161608 L 82.126116 241.383894 L 82.505158 239.609455 L 82.899838 237.838428 L 83.310126 236.070952 L 83.735989 234.307163 L 84.177395 232.547201 L 84.634309 230.7912 L 85.106696 229.039298 L 85.594518 227.291632 L 86.097738 225.548337 L 86.616316 223.809548 L 87.150213 222.075402 L 87.699387 220.346033 L 88.263795 218.621576 L 88.843392 216.902165 L 89.438135 215.187933 L 90.047976 213.479015 L 90.672869 211.775543 L 72.738758 205.106796 L 72.055735 206.968731 L 71.389165 208.836619 L 70.739097 210.710313 L 70.105583 212.58967 L 69.488672 214.474542 L 68.888413 216.364782 L 68.304851 218.260244 L 67.738033 220.16078 L 67.188002 222.066242 L 66.654801 223.976483 L 66.138471 225.891352 L 65.639054 227.810701 L 65.156587 229.734382 L 64.691108 231.662243 L 64.242654 233.594136 L 63.811259 235.529909 L 63.396957 237.469413 L 62.999781 239.412496 L 62.61976 241.359007 L 62.256925 243.308794 L 61.911304 245.261707 L 61.582923 247.217592 L 61.271809 249.176298 L 60.977986 251.137672 L 60.701476 253.101561 L 60.4423 255.067814 L 60.20048 257.036276 L 59.976034 259.006795 L 59.768979 260.979217 L 59.579332 262.953389 L 59.407107 264.929157 L 59.252317 266.906367 L 59.114975 268.884866 L 58.995092 270.864499 L 58.892676 272.845113 L 58.807736 274.826554 L 58.740278 276.808666 L 58.690308 278.791297 L 58.657829 280.774291 L 58.642844 282.757494 L 58.645354 284.740753 L 58.66536 286.723912 L 58.702858 288.706817 L 58.757847 290.689315 L 58.830322 292.67125 L 58.920278 294.652469 L 59.027707 296.632817 L 59.152601 298.612141 L 59.294951 300.590286 L 59.454745 302.567098 L 59.631971 304.542424 L 59.826615 306.516109 L 60.038663 308.488001 L 60.268096 310.457945 L 60.514899 312.425789 L 60.77905 314.391379 L 61.060531 316.354562 L 46.864529 318.453924 L 47.140113 318.681539 L 47.41591 318.908585 L 47.69192 319.135061 L 47.968142 319.360968 L 48.244574 319.586305 L 48.521216 319.811073 L 48.798067 320.03527 L 49.075126 320.258897 L 49.352391 320.481953 L 49.629863 320.704439 L 49.90754 320.926354 L 50.18542 321.147697 L 50.463505 321.36847 L 50.741791 321.588671 L 51.020279 321.808301 L 51.298967 322.027359 L 51.577855 322.245845 L 51.856941 322.463759 L 52.136225 322.6811 L 52.415706 322.897869 L 52.695383 323.114066 L 52.975255 323.32969 L 53.25532 323.544741 L 53.535579 323.759218 L 53.816029 323.973123 L 54.096671 324.186454 L 54.377503 324.399211 L 54.658525 324.611395 L 54.939735 324.823005 L 55.221132 325.034041 L 55.502716 325.244502 L 55.784486 325.454389 L 56.06644 325.663702 L 56.348578 325.87244 L 56.630899 326.080603 L 56.913402 326.288192 L 57.196085 326.495205 L 57.478949 326.701642 L 57.761992 326.907505 L 58.045213 327.112792 L 58.328611 327.317503 L 58.612186 327.521638 L 58.895936 327.725198 L 59.179861 327.928181 L 59.463959 328.130588 L 59.748229 328.332419 L 60.032672 328.533673 L 60.317285 328.73435 L 60.602068 328.934451 L 60.88702 329.133975 L 61.172139 329.332922 L 61.457426 329.531291 L 61.742879 329.729084 L 62.028497 329.926298 L 62.314279 330.122936 L 62.600225 330.318996 L 62.886333 330.514478 L 63.172602 330.709382 L 63.459032 330.903708 L 63.745622 331.097456 L 64.03237 331.290626 L 64.319276 331.483217 L 64.606338 331.67523 L 64.893557 331.866664 L 65.18093 332.05752 L 65.468458 332.247797 L 65.756138 332.437495 L 66.043971 332.626614 L 66.331955 332.815154 L 66.620089 333.003114 L 66.908372 333.190496 L 67.196804 333.377298 L 67.485384 333.56352 L 67.774109 333.749163 L 68.062981 333.934226 L 68.351997 334.11871 L 68.641157 334.302613 L 68.93046 334.485937 L 69.219904 334.66868 L 69.50949 334.850843 L 69.799216 335.032427 L 70.08908 335.213429 L 70.379083 335.393852 L 70.669223 335.573693 L 70.959499 335.752955 L 71.249911 335.931635 L 71.540457 336.109735 L 71.831137 336.287254 L 72.121949 336.464193 L 72.412893 336.64055 L 72.703967 336.816326 L 72.995172 336.991521 L 73.286505 337.166135 L 73.577966 337.340168 L 73.869554 337.513619 L 74.161268 337.686489 L 74.453107 337.858777 L 74.745071 338.030484 L 75.037157 338.20161 L 75.329366 338.372153 L 75.329366 338.372153 L 75.499815 338.080107 L 75.670656 337.788507 L 75.841888 337.497354 L 76.01351 337.206649 L 76.185521 336.916392 L 76.357921 336.626583 L 76.530709 336.337224 L 76.703884 336.048315 L 76.877445 335.759855 L 77.051391 335.471847 L 77.225723 335.184289 L 77.400438 334.897184 L 77.575536 334.61053 L 77.751017 334.324329 L 77.926879 334.038581 L 78.103122 333.753287 L 78.279744 333.468447 L 78.456746 333.184062 L 78.634127 332.900132 L 78.811885 332.616658 L 78.990019 332.333639 L 79.16853 332.051077 L 79.347416 331.768973 L 79.526676 331.487326 L 79.70631 331.206137 L 79.886317 330.925406 L 80.066695 330.645135 L 80.247445 330.365323 L 80.428565 330.085971 L 80.610055 329.807079 L 80.791914 329.528648 L 80.974141 329.250679 L 81.156735 328.973172 L 81.339695 328.696127 L 81.523021 328.419545 L 81.706712 328.143426 L 81.890766 327.867771 L 82.075184 327.59258 L 82.259965 327.317854 L 82.445106 327.043593 L 82.630609 326.769798 L 82.816472 326.496468 L 83.002694 326.223606 L 83.189274 325.95121 L 83.376211 325.679282 L 83.563506 325.407821 L 83.751156 325.136829 L 83.939162 324.866306 L 84.127522 324.596253 L 84.316235 324.326669 L 84.505301 324.057555 L 84.694719 323.788912 L 84.884488 323.52074 L 85.074607 323.253039 L 85.265076 322.985811 L 85.455893 322.719055 L 85.647058 322.452771 L 85.83857 322.186962 L 86.030429 321.921625 L 86.222632 321.656764 L 86.41518 321.392376 L 86.608072 321.128464 L 86.801307 320.865028 L 86.994884 320.602067 L 87.188802 320.339583 L 87.383061 320.077575 L 87.577659 319.816045 L 87.772596 319.554993 L 87.967871 319.294419 L 88.163484 319.034323 L 88.359432 318.774706 L 88.555716 318.515569 L 88.752335 318.256911 L 88.949288 317.998734 L 89.146574 317.741037 L 89.344192 317.483822 L 89.542141 317.227088 L 89.740421 316.970836 L 89.939031 316.715066 L 90.137969 316.459779 L 90.337236 316.204975 L 90.53683 315.950655 L 90.73675 315.696819 L 90.936996 315.443468 L 91.137567 315.190601 L 91.338462 314.938219 L 91.53968 314.686323 L 91.74122 314.434913 L 91.943081 314.18399 L 92.145264 313.933553 L 92.347766 313.683604 L 92.550587 313.434142 L 92.753726 313.185168 L 92.957182 312.936683 L 93.160955 312.688687 L 93.365043 312.44118 L 93.569446 312.194163 L 93.774164 311.947635 L 93.979194 311.701598 L 94.184536 311.456052 Z " style="stroke: rgb(0%,0%,100%); stroke-linecap: round; stroke-width: 1; fill: rgb(0%,0%,100%); fill-rule: evenodd;"/>
			<path d="M 146.664043 362.227543 L 146.737737 362.3554 L 146.81155 362.483189 L 146.885482 362.610908 L 146.959534 362.738558 L 147.033705 362.866139 L 147.107996 362.993651 L 147.182405 363.121093 L 147.256934 363.248465 L 147.331582 363.375768 L 147.406349 363.503001 L 147.481234 363.630164 L 147.556239 363.757257 L 147.631362 363.88428 L 147.706604 364.011232 L 147.781965 364.138114 L 147.857444 364.264925 L 147.933042 364.391666 L 148.008758 364.518336 L 148.084593 364.644936 L 148.160546 364.771464 L 148.236617 364.897921 L 148.312806 365.024307 L 148.389114 365.150622 L 148.465539 365.276866 L 148.542083 365.403038 L 148.618744 365.529138 L 148.695524 365.655167 L 148.772421 365.781123 L 148.849435 365.907008 L 148.926568 366.032821 L 149.003818 366.158561 L 149.081186 366.28423 L 149.158671 366.409826 L 149.236273 366.535349 L 149.313993 366.6608 L 149.39183 366.786178 L 149.469784 366.911483 L 149.547855 367.036716 L 149.626044 367.161875 L 149.704349 367.286961 L 149.782771 367.411974 L 149.86131 367.536914 L 149.939966 367.66178 L 150.018738 367.786572 L 150.097628 367.911291 L 150.176633 368.035936 L 150.255756 368.160507 L 150.334994 368.285004 L 150.414349 368.409427 L 150.49382 368.533776 L 150.573408 368.65805 L 150.653111 368.78225 L 150.732931 368.906375 L 150.812867 369.030426 L 150.892919 369.154402 L 150.973086 369.278303 L 151.053369 369.402128 L 135.003527 379.818803 L 134.913513 379.679967 L 134.823628 379.541048 L 134.733873 379.402045 L 134.644248 379.262958 L 134.554753 379.123787 L 134.465389 378.984533 L 134.376154 378.845195 L 134.28705 378.705774 L 134.198076 378.566269 L 134.109233 378.426682 L 134.02052 378.287011 L 133.931938 378.147258 L 133.843487 378.007421 L 133.755166 377.867503 L 133.666976 377.727501 L 133.578917 377.587418 L 133.490989 377.447252 L 133.403192 377.307003 L 133.315527 377.166673 L 133.227992 377.026261 L 133.140589 376.885767 L 133.053317 376.745192 L 132.966177 376.604535 L 132.879168 376.463796 L 132.792291 376.322977 L 132.705545 376.182076 L 132.618932 376.041094 L 132.53245 375.900031 L 132.4461 375.758888 L 132.359882 375.617663 L 132.273796 375.476359 L 132.187842 375.334973 L 132.102021 375.193508 L 132.016331 375.051962 L 131.930774 374.910337 L 131.84535 374.768631 L 131.760058 374.626846 L 131.674899 374.48498 L 131.589872 374.343036 L 131.504978 374.201012 L 131.420217 374.058908 L 131.335589 373.916726 L 131.251093 373.774464 L 131.166731 373.632123 L 131.082502 373.489704 L 130.998406 373.347206 L 130.914443 373.204629 L 130.830614 373.061974 L 130.746918 372.919241 L 130.663355 372.77643 L 130.579926 372.63354 L 130.496631 372.490572 L 130.413469 372.347527 L 130.330442 372.204404 L 130.247548 372.061203 L 130.164787 371.917925 L 130.082161 371.77457 L 117.64575 378.934841 L 127.957877 345.493169 L 159.100454 355.067272 Z " style="stroke: rgb(67%,84%,90%); stroke-linecap: round; stroke-width: 1; fill: rgb(67%,84%,90%); fill-rule: evenodd;"/>
			<path d="M 164.569372 387.300603 L 164.716589 387.46893 L 164.864045 387.637048 L 165.011739 387.804958 L 165.15967 387.972658 L 165.307839 388.140149 L 165.456245 388.307429 L 165.604888 388.474499 L 165.753767 388.641358 L 165.902883 388.808006 L 166.052234 388.974443 L 166.201821 389.140668 L 166.351644 389.30668 L 166.501701 389.472481 L 166.651994 389.638069 L 166.80252 389.803443 L 166.953281 389.968604 L 167.104276 390.133552 L 167.255504 390.298285 L 167.406965 390.462804 L 167.55866 390.627109 L 167.710586 390.791198 L 167.862746 390.955072 L 168.015137 391.11873 L 168.16776 391.282172 L 168.320614 391.445398 L 168.473699 391.608407 L 168.627015 391.771199 L 168.780562 391.933773 L 168.934339 392.09613 L 169.088345 392.258269 L 169.242581 392.42019 L 169.397046 392.581891 L 169.551741 392.743374 L 169.706664 392.904638 L 169.861815 393.065682 L 170.017194 393.226506 L 170.172801 393.38711 L 170.328635 393.547493 L 170.484696 393.707655 L 170.640984 393.867596 L 170.797498 394.027316 L 170.954239 394.186813 L 171.111205 394.346088 L 171.268397 394.505141 L 171.425814 394.663971 L 171.583456 394.822578 L 171.741322 394.980961 L 171.899412 395.139121 L 172.057727 395.297056 L 172.216265 395.454767 L 172.375026 395.612254 L 172.53401 395.769515 L 172.693217 395.92655 L 172.852646 396.083361 L 173.012297 396.239945 L 173.17217 396.396302 L 173.332264 396.552434 L 159.982894 410.260054 L 159.803394 410.084998 L 159.624143 409.909687 L 159.44514 409.734123 L 159.266387 409.558306 L 159.087882 409.382236 L 158.909627 409.205913 L 158.731622 409.029337 L 158.553867 408.85251 L 158.376363 408.67543 L 158.19911 408.4981 L 158.022109 408.320519 L 157.845359 408.142687 L 157.668861 407.964605 L 157.492616 407.786273 L 157.316623 407.607691 L 157.140884 407.428861 L 156.965398 407.249781 L 156.790166 407.070454 L 156.615189 406.890878 L 156.440465 406.711054 L 156.265997 406.530983 L 156.091784 406.350666 L 155.917827 406.170101 L 155.744125 405.98929 L 155.57068 405.808234 L 155.397492 405.626932 L 155.224561 405.445384 L 155.051887 405.263592 L 154.87947 405.081556 L 154.707312 404.899275 L 154.535412 404.716751 L 154.363771 404.533983 L 154.192389 404.350972 L 154.021266 404.167719 L 153.850404 403.984224 L 153.679801 403.800486 L 153.509459 403.616508 L 153.339377 403.432288 L 153.169557 403.247827 L 152.999998 403.063126 L 152.830701 402.878185 L 152.661666 402.693004 L 152.492894 402.507584 L 152.324384 402.321925 L 152.156138 402.136028 L 151.988155 401.949892 L 151.820436 401.763519 L 151.652982 401.576908 L 151.485792 401.39006 L 151.318866 401.202975 L 151.152206 401.015655 L 150.985811 400.828098 L 150.819683 400.640306 L 150.65382 400.452278 L 150.488224 400.264016 L 150.322895 400.075519 L 150.157833 399.886789 L 139.349179 409.326428 L 142.968886 374.518627 L 175.378026 377.860963 Z " style="stroke: rgb(0%,0%,100%); stroke-linecap: round; stroke-width: 1; fill: rgb(0%,0%,100%); fill-rule: evenodd;"/>
			<circle cx="283.46456692913387" cy="283.46456692913387" r="191.33858267716536" style="stroke: rgb(0%,0%,0%); stroke-linecap: butt; stroke-width: 1; fill: none; fill-rule: evenodd;"/>
			<g transform=" matrix(0.663198,0.748444,-0.748444,0.663198,442.083761,462.472345)">
				<text x="0" y="0" style="font-family: Helvetica; font-size: 14px;fill: rgb(0%,0%,0%); stroke:none;" transform="translate(0,0) scale(1,-1)"> istA </text>
			</g>
			<g transform=" matrix(0.943953,0.330081,-0.330081,0.943953,509.232786,362.411032)">
				<text x="0" y="0" style="font-family: Helvetica; font-size: 14px;fill: rgb(0%,0%,0%); stroke:none;" transform="translate(0,0) scale(1,-1)"> istB </text>
			</g>
			<g transform=" matrix(0.892265,-0.451513,0.451513,0.892265,496.870371,175.474772)">
				<text x="0" y="0" style="font-family: Helvetica; font-size: 14px;fill: rgb(0%,0%,0%); stroke:none;" transform="translate(0,0) scale(1,-1)"> YP_RS22220 </text>
			</g>
			<g transform=" matrix(0.016345,-0.999866,0.999866,0.016345,287.373783,44.323288)">
				<text x="0" y="0" style="font-family: Helvetica; font-size: 14px;fill: rgb(0%,0%,0%); stroke:none;" transform="translate(0,0) scale(1,-1)"> YP_RS22225 </text>
			</g>
			<g transform=" matrix(0.005884,0.999983,-0.999983,0.005884,282.620143,139.963114)">
				<text x="0" y="0" style="font-family: Helvetica; font-size: 14px;fill: rgb(0%,0%,0%); stroke:none;" transform="translate(0,0) scale(1,-1)"> pst </text>
			</g>
			<g transform=" matrix(0.755555,0.655085,-0.655085,0.755555,102.756057,126.785699)">
				<text x="-92.61" y="0" style="font-family: Helvetica; font-size: 14px;fill: rgb(0%,0%,0%); stroke:none;" transform="translate(0,0) scale(1,-1)"> YP_RS22235 </text>
			</g>
			<g transform=" matrix(0.937297,0.348531,-0.348531,0.937297,59.288174,200.105236)">
				<text x="-26.46" y="0" style="font-family: Helvetica; font-size: 14px;fill: rgb(0%,0%,0%); stroke:none;" transform="translate(0,0) scale(1,-1)"> pla </text>
			</g>
			<g transform=" matrix(0.928835,-0.370494,0.370494,0.928835,150.173118,336.63194)">
				<text x="0" y="0" style="font-family: Helvetica; font-size: 14px;fill: rgb(0%,0%,0%); stroke:none;" transform="translate(0,0) scale(1,-1)"> YP_RS22245 </text>
			</g>
			<g transform=" matrix(0.839175,-0.543862,0.543862,0.839175,163.039697,361.510904)">
				<text x="0" y="0" style="font-family: Helvetica; font-size: 14px;fill: rgb(0%,0%,0%); stroke:none;" transform="translate(0,0) scale(1,-1)"> YP_RS22250 </text>
			</g>
		</g>
	</g>
</svg>
