<?xml version="1.0" encoding="utf-8"?>
<!DOCTYPE svg
  PUBLIC '-//W3C//DTD SVG 1.0//EN'
  'http://www.w3.org/TR/2001/REC-SVG-20010904/DTD/svg10.dtd'>
<svg width="841.8897637795277" height="595.2755905511812" preserveAspectRatio="xMinYMin meet" viewBox="0 0 841 595" xmlns="http://www.w3.org/2000/svg" version="1.0" fill-rule="evenodd" xmlns:xlink="http://www.w3.org/1999/xlink">
	<title>...</title>
	<desc>...</desc>
	<clipPath id="clip">
		<rect x="0" y="0" width="841.8897637795277" height="595.2755905511812"/>
	</clipPath>
	<g id="group" transform="scale(1,-1) translate(0,-595)" style="clip-path: url(#clip)">
		<g transform="">
			<polygon points="69.21154 530.1859, 369.1764 530.1859, 369.1764 543.747, 391.7783 521.1452, 369.1764 498.5433, 369.1764 512.1044, 69.21154 512.1044" style="stroke: rgb(0%,0%,100%); stroke-linecap: round; stroke-width: 1; fill: rgb(0%,0%,100%); fill-rule: evenodd;"/>
			<polygon points="390.517 530.1859, 614.8064 530.1859, 614.8064 543.747, 637.4083 521.1452, 614.8064 498.5433, 614.8064 512.1044, 390.517 512.1044" style="stroke: rgb(67%,84%,90%); stroke-linecap: round; stroke-width: 1; fill: rgb(67%,84%,90%); fill-rule: evenodd;"/>
			<polygon points="206.3734 396.2489, 245.2578 396.2489, 245.2578 409.81, 267.8597 387.2082, 245.2578 364.6063, 245.2578 378.1674, 206.3734 378.1674" style="stroke: rgb(0%,0%,100%); stroke-linecap: round; stroke-width: 1; fill: rgb(0%,0%,100%); fill-rule: evenodd;"/>
			<polygon points="666.7325 396.2489, 768.9952 396.2489, 768.9952 409.81, 791.5971 387.2082, 768.9952 364.6063, 768.9952 378.1674, 666.7325 378.1674" style="stroke: rgb(67%,84%,90%); stroke-linecap: round; stroke-width: 1; fill: rgb(67%,84%,90%); fill-rule: evenodd;"/>
			<polygon points="383.2648 217.1082, 67.21887 217.1082, 67.21887 230.6693, 44.617 208.0674, 67.21887 185.4656, 67.21887 199.0267, 383.2648 199.0267" style="stroke: rgb(0%,0%,100%); stroke-linecap: round; stroke-width: 1; fill: rgb(0%,0%,100%); fill-rule: evenodd;"/>
			<polygon points="454.8412 262.3119, 528.7256 262.3119, 528.7256 275.873, 551.3274 253.2712, 528.7256 230.6693, 528.7256 244.2304, 454.8412 244.2304" style="stroke: rgb(67%,84%,90%); stroke-linecap: round; stroke-width: 1; fill: rgb(67%,84%,90%); fill-rule: evenodd;"/>
			<polygon points="627.6335 262.3119, 777.1934 262.3119, 777.1934 275.873, 799.7953 253.2712, 777.1934 230.6693, 777.1934 244.2304, 627.6335 244.2304" style="stroke: rgb(0%,0%,100%); stroke-linecap: round; stroke-width: 1; fill: rgb(0%,0%,100%); fill-rule: evenodd;"/>
			<polygon points="42.09449 128.3749, 143.4112 128.3749, 143.4112 141.936, 166.0131 119.3342, 143.4112 96.73228, 143.4112 110.2934, 42.09449 110.2934" style="stroke: rgb(0%,0%,100%); stroke-linecap: round; stroke-width: 1; fill: rgb(0%,0%,100%); fill-rule: evenodd;"/>
			<polygon points="319.2559 83.17116, 247.2635 83.17116, 247.2635 96.73228, 224.6616 74.13041, 247.2635 51.52854, 247.2635 65.08967, 319.2559 65.08967" style="stroke: rgb(67%,84%,90%); stroke-linecap: round; stroke-width: 1; fill: rgb(67%,84%,90%); fill-rule: evenodd;"/>
			<polygon points="426.7782 83.17116, 341.5425 83.17116, 341.5425 96.73228, 318.9406 74.13041, 341.5425 51.52854, 341.5425 65.08967, 426.7782 65.08967" style="stroke: rgb(0%,0%,100%); stroke-linecap: round; stroke-width: 1; fill: rgb(0%,0%,100%); fill-rule: evenodd;"/>
			<path d="M 42.094488,498.543307 L 799.795276,498.543307 Z" style="stroke: rgb(0%,0%,0%); stroke-linecap: butt; stroke-width: 1;"/>
			<path d="M 42.094488,453.339567 L 42.094488,543.747047 Z" style="stroke: rgb(0%,0%,0%); stroke-linecap: butt; stroke-width: 1;"/>
			<path d="M 42.094488,364.606299 L 799.795276,364.606299 Z" style="stroke: rgb(0%,0%,0%); stroke-linecap: butt; stroke-width: 1;"/>
			<path d="M 42.094488,319.402559 L 42.094488,409.810039 Z" style="stroke: rgb(0%,0%,0%); stroke-linecap: butt; stroke-width: 1;"/>
			<path d="M 42.094488,230.669291 L 799.795276,230.669291 Z" style="stroke: rgb(0%,0%,0%); stroke-linecap: butt; stroke-width: 1;"/>
			<path d="M 42.094488,185.465551 L 42.094488,275.873031 Z" style="stroke: rgb(0%,0%,0%); stroke-linecap: butt; stroke-width: 1;"/>
			<path d="M 798.849332,51.528543 L 798.849332,141.936024 Z" style="stroke: rgb(0%,0%,0%); stroke-linecap: butt; stroke-width: 1;"/>
			<path d="M 42.094488,96.732283 L 798.849332,96.732283 Z" style="stroke: rgb(0%,0%,0%); stroke-linecap: butt; stroke-width: 1;"/>
			<path d="M 42.094488,51.528543 L 42.094488,141.936024 Z" style="stroke: rgb(0%,0%,0%); stroke-linecap: butt; stroke-width: 1;"/>
			<g transform=" matrix(1,0,-0,1,69.211537,543.747047)">
				<text x="0" y="0" style="font-family: Helvetica; font-size: 14px;fill: rgb(0%,0%,0%); stroke:none;" transform="translate(0,0) scale(1,-1)">istA</text>
			</g>
			<g transform=" matrix(1,0,-0,1,390.517031,543.747047)">
				<text x="0" y="0" style="font-family: Helvetica; font-size: 14px;fill: rgb(0%,0%,0%); stroke:none;" transform="translate(0,0) scale(1,-1)">istB</text>
			</g>
			<g transform=" matrix(1,0,-0,1,206.373352,409.810039)">
				<text x="0" y="0" style="font-family: Helvetica; font-size: 14px;fill: rgb(0%,0%,0%); stroke:none;" transform="translate(0,0) scale(1,-1)">YP_RS22220</text>
			</g>
			<g transform=" matrix(1,0,-0,1,666.732549,409.810039)">
				<text x="0" y="0" style="font-family: Helvetica; font-size: 14px;fill: rgb(0%,0%,0%); stroke:none;" transform="translate(0,0) scale(1,-1)">YP_RS22225</text>
			</g>
			<g transform=" matrix(-1,0,-0,-1,383.264797,185.465551)">
				<text x="0" y="0" style="font-family: Helvetica; font-size: 14px;fill: rgb(0%,0%,0%); stroke:none;" transform="translate(0,0) scale(1,-1)">pst</text>
			</g>
			<g transform=" matrix(1,0,-0,1,454.841193,275.873031)">
				<text x="0" y="0" style="font-family: Helvetica; font-size: 14px;fill: rgb(0%,0%,0%); stroke:none;" transform="translate(0,0) scale(1,-1)">YP_RS22235</text>
			</g>
			<g transform=" matrix(1,0,-0,1,627.633549,275.873031)">
				<text x="0" y="0" style="font-family: Helvetica; font-size: 14px;fill: rgb(0%,0%,0%); stroke:none;" transform="translate(0,0) scale(1,-1)">pla</text>
			</g>
			<g transform=" matrix(1,0,-0,1,42.094488,141.936024)">
				<text x="0" y="0" style="font-family: Helvetica; font-size: 14px;fill: rgb(0%,0%,0%); stroke:none;" transform="translate(0,0) scale(1,-1)">pla</text>
			</g>
			<g transform=" matrix(-1,0,-0,-1,319.25595,51.528543)">
				<text x="0" y="0" style="font-family: Helvetica; font-size: 14px;fill: rgb(0%,0%,0%); stroke:none;" transform="translate(0,0) scale(1,-1)">YP_RS22245</text>
			</g>
			<g transform=" matrix(-1,0,-0,-1,426.7782,51.528543)">
				<text x="0" y="0" style="font-family: Helvetica; font-size: 14px;fill: rgb(0%,0%,0%); stroke:none;" transform="translate(0,0) scale(1,-1)">YP_RS22250</text>
			</g>
		</g>
	</g>
</svg>
